<svg width="581" height="258" viewBox="0 0 581 258" fill="none" xmlns="http://www.w3.org/2000/svg">
<path d="M41.977 137.877V81.8662H56.118V137.877H41.977ZM64.1513 105.803L70.1553 94.6642L74.1053 93.5582C73.6313 94.4008 73.1046 95.1118 72.5253 95.6912C71.946 96.2178 71.2876 96.4812 70.5503 96.4812C68.9176 96.4812 67.4166 95.7965 66.0473 94.4272C64.678 93.0578 63.9933 91.3198 63.9933 89.2132C63.9933 87.0012 64.7306 85.1052 66.2053 83.5252C67.7326 81.8925 69.6286 81.0762 71.8933 81.0762C74.0526 81.0762 75.9223 81.8662 77.5023 83.4462C79.0823 85.0262 79.8723 86.9485 79.8723 89.2132C79.8723 90.1612 79.688 91.2408 79.3193 92.4522C78.9506 93.6635 78.2396 95.2435 77.1863 97.1922L70.6293 109.358L64.1513 105.803ZM83.6921 137.877V99.2462H97.4381V137.877H83.6921ZM107.945 137.877V115.52C107.945 113.888 107.445 112.624 106.444 111.728C105.443 110.78 104.206 110.306 102.731 110.306C101.678 110.306 100.756 110.517 99.9661 110.938C99.1761 111.36 98.5441 111.965 98.0701 112.755C97.6488 113.493 97.4381 114.414 97.4381 115.52L92.0661 113.387C92.0661 110.28 92.7508 107.62 94.1201 105.408C95.4894 103.196 97.3328 101.485 99.6501 100.273C101.967 99.0618 104.601 98.4562 107.55 98.4562C110.183 98.4562 112.553 99.0882 114.66 100.352C116.819 101.564 118.531 103.275 119.795 105.487C121.059 107.699 121.691 110.306 121.691 113.308V137.877H107.945ZM132.198 137.877V115.52C132.198 113.888 131.698 112.624 130.697 111.728C129.696 110.78 128.459 110.306 126.984 110.306C125.983 110.306 125.062 110.517 124.219 110.938C123.429 111.36 122.797 111.965 122.323 112.755C121.902 113.493 121.691 114.414 121.691 115.52L113.633 115.125C113.738 111.649 114.502 108.674 115.924 106.198C117.346 103.723 119.295 101.827 121.77 100.51C124.298 99.1408 127.142 98.4562 130.302 98.4562C133.304 98.4562 135.99 99.0882 138.36 100.352C140.73 101.616 142.573 103.46 143.89 105.882C145.259 108.252 145.944 111.096 145.944 114.414V137.877H132.198ZM53.195 199.811V189.304H64.255C65.6243 189.304 66.862 189.041 67.968 188.514C69.1267 187.935 70.0483 187.092 70.733 185.986C71.4177 184.88 71.76 183.511 71.76 181.878C71.76 180.246 71.4177 178.876 70.733 177.77C70.0483 176.612 69.1267 175.769 67.968 175.242C66.862 174.663 65.6243 174.373 64.255 174.373H53.195V163.866H66.704C70.2853 163.866 73.5243 164.604 76.421 166.078C79.3177 167.5 81.6087 169.554 83.294 172.24C84.9793 174.874 85.822 178.086 85.822 181.878C85.822 185.565 84.9793 188.778 83.294 191.516C81.6087 194.202 79.3177 196.256 76.421 197.678C73.5243 199.1 70.2853 199.811 66.704 199.811H53.195ZM41.977 219.877V163.866H56.118V219.877H41.977ZM91.5612 219.877V181.246H105.307V219.877H91.5612ZM105.307 198.863L99.1452 193.649C100.673 189.278 102.7 185.986 105.228 183.774C107.756 181.562 111.048 180.456 115.103 180.456C116.947 180.456 118.527 180.693 119.843 181.167C121.213 181.641 122.371 182.379 123.319 183.379L115.34 194.044C114.919 193.57 114.313 193.202 113.523 192.938C112.786 192.622 111.943 192.464 110.995 192.464C109.205 192.464 107.809 193.017 106.808 194.123C105.808 195.177 105.307 196.757 105.307 198.863ZM141.083 220.667C137.501 220.667 134.315 219.798 131.524 218.06C128.732 216.322 126.547 213.952 124.967 210.95C123.387 207.896 122.597 204.446 122.597 200.601C122.597 196.704 123.387 193.228 124.967 190.173C126.547 187.119 128.732 184.749 131.524 183.063C134.315 181.325 137.501 180.456 141.083 180.456C143.505 180.456 145.717 180.904 147.719 181.799C149.72 182.642 151.353 183.853 152.617 185.433C153.933 187.013 154.723 188.804 154.987 190.805V210.239C154.723 212.293 153.933 214.11 152.617 215.69C151.353 217.218 149.72 218.429 147.719 219.324C145.717 220.22 143.505 220.667 141.083 220.667ZM144.006 208.422C146.27 208.422 148.087 207.685 149.457 206.21C150.879 204.736 151.59 202.84 151.59 200.522C151.59 198.995 151.274 197.652 150.642 196.493C150.01 195.335 149.114 194.413 147.956 193.728C146.85 193.044 145.559 192.701 144.085 192.701C142.61 192.701 141.293 193.044 140.135 193.728C139.029 194.413 138.133 195.361 137.449 196.572C136.817 197.731 136.501 199.048 136.501 200.522C136.501 202.05 136.817 203.419 137.449 204.63C138.081 205.789 138.976 206.711 140.135 207.395C141.293 208.08 142.584 208.422 144.006 208.422ZM151.037 219.877V209.528L153.012 200.048L151.037 190.726V181.246H164.546V219.877H151.037ZM197.61 219.877V198.073C197.61 196.283 197.083 194.887 196.03 193.886C194.977 192.833 193.634 192.306 192.001 192.306C190.895 192.306 189.894 192.543 188.999 193.017C188.156 193.491 187.498 194.15 187.024 194.992C186.55 195.835 186.313 196.862 186.313 198.073L180.941 195.545C180.941 192.438 181.626 189.778 182.995 187.566C184.364 185.302 186.234 183.564 188.604 182.352C191.027 181.088 193.765 180.456 196.82 180.456C199.611 180.456 202.087 181.115 204.246 182.431C206.458 183.695 208.196 185.407 209.46 187.566C210.724 189.726 211.356 192.175 211.356 194.913V219.877H197.61ZM172.567 219.877V181.246H186.313V219.877H172.567ZM243.668 219.877V198.073C243.668 196.283 243.141 194.887 242.088 193.886C241.034 192.833 239.691 192.306 238.059 192.306C236.953 192.306 235.952 192.543 235.057 193.017C234.214 193.491 233.556 194.15 233.082 194.992C232.608 195.835 232.371 196.862 232.371 198.073L226.999 195.545C226.999 192.438 227.683 189.778 229.053 187.566C230.422 185.302 232.292 183.564 234.662 182.352C237.084 181.088 239.823 180.456 242.878 180.456C245.669 180.456 248.144 181.115 250.304 182.431C252.516 183.695 254.254 185.407 255.518 187.566C256.782 189.726 257.414 192.175 257.414 194.913V219.877H243.668ZM218.625 219.877V181.246H232.371V219.877H218.625ZM280.798 220.667C277.217 220.667 274.031 219.798 271.239 218.06C268.448 216.322 266.262 213.952 264.682 210.95C263.102 207.896 262.312 204.446 262.312 200.601C262.312 196.704 263.102 193.228 264.682 190.173C266.262 187.119 268.448 184.749 271.239 183.063C274.031 181.325 277.217 180.456 280.798 180.456C283.221 180.456 285.433 180.904 287.434 181.799C289.436 182.642 291.068 183.853 292.332 185.433C293.649 187.013 294.439 188.804 294.702 190.805V210.239C294.439 212.293 293.649 214.11 292.332 215.69C291.068 217.218 289.436 218.429 287.434 219.324C285.433 220.22 283.221 220.667 280.798 220.667ZM283.721 208.422C285.986 208.422 287.803 207.685 289.172 206.21C290.594 204.736 291.305 202.84 291.305 200.522C291.305 198.995 290.989 197.652 290.357 196.493C289.725 195.335 288.83 194.413 287.671 193.728C286.565 193.044 285.275 192.701 283.8 192.701C282.326 192.701 281.009 193.044 279.85 193.728C278.744 194.413 277.849 195.361 277.164 196.572C276.532 197.731 276.216 199.048 276.216 200.522C276.216 202.05 276.532 203.419 277.164 204.63C277.796 205.789 278.692 206.711 279.85 207.395C281.009 208.08 282.299 208.422 283.721 208.422ZM290.752 219.877V209.528L292.727 200.048L290.752 190.726V181.246H304.261V219.877H290.752ZM323.817 219.956L308.333 181.246H323.027L332.507 213.083H326.74L336.299 181.246H350.993L335.114 219.877L323.817 219.956ZM314.653 236.23L326.108 211.029L335.114 219.877L328.478 236.23H314.653ZM404.522 219.877L383.35 190.647L403.653 163.866H420.875L397.728 192.938L397.649 187.961L421.744 219.877H404.522ZM370.552 219.877V163.866H384.693V219.877H370.552ZM443.044 220.746C438.725 220.746 434.907 219.904 431.589 218.218C428.271 216.48 425.664 214.084 423.768 211.029C421.872 207.975 420.924 204.472 420.924 200.522C420.924 196.625 421.846 193.175 423.689 190.173C425.532 187.119 428.034 184.722 431.194 182.984C434.407 181.194 438.014 180.298 442.017 180.298C445.914 180.298 449.364 181.141 452.366 182.826C455.421 184.459 457.791 186.75 459.476 189.699C461.214 192.596 462.083 195.914 462.083 199.653C462.083 200.443 462.03 201.26 461.925 202.102C461.872 202.892 461.714 203.814 461.451 204.867L427.402 205.025V196.177L456 195.94L449.838 199.811C449.785 197.652 449.469 195.888 448.89 194.518C448.311 193.096 447.468 192.017 446.362 191.279C445.256 190.542 443.86 190.173 442.175 190.173C440.437 190.173 438.936 190.595 437.672 191.437C436.408 192.28 435.434 193.465 434.749 194.992C434.064 196.52 433.722 198.363 433.722 200.522C433.722 202.734 434.091 204.63 434.828 206.21C435.565 207.738 436.619 208.896 437.988 209.686C439.357 210.476 441.043 210.871 443.044 210.871C444.94 210.871 446.599 210.555 448.021 209.923C449.496 209.291 450.812 208.317 451.971 207L459.16 214.189C457.264 216.349 454.947 217.981 452.208 219.087C449.522 220.193 446.467 220.746 443.044 220.746ZM483.864 220.667C480.125 220.667 476.833 219.798 473.989 218.06C471.145 216.322 468.907 213.952 467.274 210.95C465.694 207.896 464.904 204.446 464.904 200.601C464.904 196.704 465.694 193.228 467.274 190.173C468.907 187.119 471.119 184.749 473.91 183.063C476.754 181.325 480.072 180.456 483.864 180.456C486.287 180.456 488.551 180.904 490.658 181.799C492.765 182.642 494.529 183.853 495.951 185.433C497.373 187.013 498.216 188.804 498.479 190.805V209.686C498.216 211.688 497.373 213.531 495.951 215.216C494.529 216.902 492.765 218.245 490.658 219.245C488.551 220.193 486.287 220.667 483.864 220.667ZM486.313 208.422C487.84 208.422 489.157 208.106 490.263 207.474C491.369 206.79 492.238 205.868 492.87 204.709C493.555 203.498 493.897 202.102 493.897 200.522C493.897 198.995 493.581 197.652 492.949 196.493C492.317 195.335 491.422 194.413 490.263 193.728C489.157 193.044 487.867 192.701 486.392 192.701C484.917 192.701 483.601 193.044 482.442 193.728C481.336 194.413 480.441 195.361 479.756 196.572C479.124 197.731 478.808 199.048 478.808 200.522C478.808 202.05 479.124 203.419 479.756 204.63C480.388 205.789 481.283 206.711 482.442 207.395C483.601 208.08 484.891 208.422 486.313 208.422ZM506.853 219.877H493.344V209.528L495.319 200.048L493.107 190.726V162.286H506.853V219.877ZM514.796 219.877V181.246H528.621V219.877H514.796ZM521.669 176.743C519.615 176.743 517.903 176.059 516.534 174.689C515.164 173.267 514.48 171.503 514.48 169.396C514.48 167.342 515.164 165.604 516.534 164.182C517.903 162.76 519.615 162.049 521.669 162.049C523.828 162.049 525.566 162.76 526.883 164.182C528.252 165.604 528.937 167.342 528.937 169.396C528.937 171.503 528.252 173.267 526.883 174.689C525.566 176.059 523.828 176.743 521.669 176.743ZM552.747 220.667C549.165 220.667 545.979 219.798 543.188 218.06C540.396 216.322 538.211 213.952 536.631 210.95C535.051 207.896 534.261 204.446 534.261 200.601C534.261 196.704 535.051 193.228 536.631 190.173C538.211 187.119 540.396 184.749 543.188 183.063C545.979 181.325 549.165 180.456 552.747 180.456C555.169 180.456 557.381 180.904 559.383 181.799C561.384 182.642 563.017 183.853 564.281 185.433C565.597 187.013 566.387 188.804 566.651 190.805V210.239C566.387 212.293 565.597 214.11 564.281 215.69C563.017 217.218 561.384 218.429 559.383 219.324C557.381 220.22 555.169 220.667 552.747 220.667ZM555.67 208.422C557.934 208.422 559.751 207.685 561.121 206.21C562.543 204.736 563.254 202.84 563.254 200.522C563.254 198.995 562.938 197.652 562.306 196.493C561.674 195.335 560.778 194.413 559.62 193.728C558.514 193.044 557.223 192.701 555.749 192.701C554.274 192.701 552.957 193.044 551.799 193.728C550.693 194.413 549.797 195.361 549.113 196.572C548.481 197.731 548.165 199.048 548.165 200.522C548.165 202.05 548.481 203.419 549.113 204.63C549.745 205.789 550.64 206.711 551.799 207.395C552.957 208.08 554.248 208.422 555.67 208.422ZM562.701 219.877V209.528L564.676 200.048L562.701 190.726V181.246H576.21V219.877H562.701Z" fill="black"/>
<path d="M75 254C106.5 236.59 200.5 227.637 284 234.103" stroke="#3D37AA" stroke-width="8" stroke-linecap="round"/>
<path d="M16.2784 40.8002L17.7028 39.6594L28.6429 53.3182L27.2184 54.4591L16.2784 40.8002ZM18.6719 61.3045L17.2279 62.461L6.28789 48.8021L7.73183 47.6456L18.6719 61.3045ZM22.307 48.0471L13.4677 55.1269L12.4519 53.8586L21.2911 46.7788L22.307 48.0471ZM37.2379 46.5943C36.1712 47.4486 35.0574 47.9777 33.8967 48.1814C32.7255 48.3721 31.5996 48.2595 30.5192 47.8436C29.4283 47.4148 28.4766 46.693 27.6639 45.6784C26.8512 44.6637 26.3469 43.5942 26.151 42.4699C25.9682 41.3351 26.0769 40.2444 26.4771 39.1978C26.8799 38.1278 27.5562 37.2125 28.5058 36.4519C29.4684 35.6809 30.4976 35.2196 31.5933 35.068C32.6917 34.893 33.7732 35.0303 34.8381 35.48C35.8925 35.9167 36.8313 36.6488 37.6544 37.6765C37.7065 37.7416 37.7573 37.8183 37.8068 37.9068C37.8589 37.9718 37.9162 38.0434 37.9787 38.1214L29.0614 45.2637L28.2331 44.2295L36.4089 37.6811L36.1907 38.5285C35.5969 37.787 34.9081 37.2603 34.1244 36.9484C33.3434 36.6131 32.5494 36.5016 31.7426 36.614C30.9358 36.7264 30.1746 37.0691 29.4591 37.6422C28.7567 38.2048 28.256 38.8728 27.9571 39.646C27.6582 40.4192 27.5871 41.2236 27.7438 42.059C27.9004 42.8944 28.2809 43.6894 28.8852 44.4439L29.0571 44.6585C29.6823 45.439 30.4036 45.993 31.2211 46.3205C32.0412 46.6246 32.8924 46.7009 33.7747 46.5494C34.6596 46.3745 35.4988 45.9693 36.2923 45.3337C36.9167 44.8336 37.407 44.2594 37.7632 43.6111C38.1325 42.9523 38.3299 42.239 38.3554 41.4711L39.8549 41.7436C39.8372 42.6546 39.5982 43.5293 39.138 44.3677C38.6908 45.1957 38.0574 45.9379 37.2379 46.5943ZM44.5846 40.5498L32.9882 26.0713L34.3736 24.9617L45.97 39.4401L44.5846 40.5498ZM49.8248 36.3526L38.2284 21.8742L39.6138 20.7646L51.2102 35.243L49.8248 36.3526ZM59.3189 28.9085C58.3303 29.7004 57.2621 30.1929 56.1143 30.3862C54.9691 30.5561 53.8563 30.4331 52.7759 30.0172C51.685 29.5884 50.7332 28.8666 49.9206 27.852C49.0974 26.8243 48.601 25.7379 48.4311 24.5927C48.2613 23.4475 48.3895 22.3412 48.8157 21.2738C49.242 20.2063 49.9559 19.2715 50.9576 18.4692C51.9723 17.6565 53.047 17.1588 54.1817 16.9759C55.3295 16.7826 56.4371 16.8991 57.5045 17.3254C58.585 17.7412 59.5367 18.463 60.3599 19.4906C61.1725 20.5053 61.669 21.5917 61.8493 22.7499C62.0321 23.8847 61.9091 24.9975 61.4803 26.0883C61.041 27.1662 60.3206 28.1062 59.3189 28.9085ZM58.3343 27.6792C59.0758 27.0853 59.6025 26.3966 59.9144 25.6129C60.2159 24.8162 60.2896 23.9885 60.1355 23.1296C59.984 22.2473 59.5905 21.4094 58.9549 20.6159C58.309 19.8094 57.5772 19.2424 56.7597 18.9149C55.9552 18.577 55.1366 18.4746 54.3037 18.6078C53.4604 18.7281 52.6746 19.0799 51.9461 19.6634C51.2176 20.2469 50.7026 20.9369 50.4012 21.7336C50.0893 22.5172 50.0038 23.3437 50.1449 24.213C50.286 25.0823 50.6795 25.9202 51.3255 26.7267C51.961 27.5202 52.6928 28.0872 53.5207 28.4277C54.3382 28.7552 55.1686 28.8589 56.0118 28.7386C56.8447 28.6054 57.6189 28.2523 58.3343 27.6792ZM64.0751 18.2125L56.1439 8.87008L57.783 7.55728L65.1483 17.3529L64.0751 18.2125ZM67.9816 21.9701C67.6955 22.1994 67.3702 22.2998 67.0057 22.2713C66.6439 22.2195 66.3536 22.057 66.1348 21.7838C65.9056 21.4976 65.8156 21.1853 65.8648 20.8469C65.9167 20.4851 66.0857 20.1895 66.3719 19.9603C66.6711 19.7207 66.9899 19.6255 67.3283 19.6748C67.6693 19.7006 67.9544 19.8566 68.1836 20.1428C68.4024 20.416 68.4976 20.7348 68.4692 21.0992C68.4434 21.4402 68.2808 21.7305 67.9816 21.9701Z" fill="#3D37AA"/>
</svg>
