<svg width="47" height="48" viewBox="0 0 47 48" fill="none" xmlns="http://www.w3.org/2000/svg">
<path d="M40.1204 34.0659L32.1598 26.8279C31.7835 26.4858 31.289 26.3034 30.7807 26.3191C30.2724 26.3349 29.7902 26.5475 29.4357 26.9121L24.7494 31.7315C23.6214 31.5161 21.3537 30.8091 19.0193 28.4807C16.685 26.1444 15.978 23.8708 15.7685 22.7506L20.584 18.0624C20.9491 17.7081 21.162 17.2258 21.1777 16.7174C21.1935 16.209 21.0107 15.7144 20.6683 15.3383L13.4322 7.37965C13.0896 7.00239 12.6134 6.77355 12.1048 6.74174C11.5961 6.70993 11.0951 6.87764 10.7082 7.20927L6.45859 10.8537C6.12001 11.1935 5.91793 11.6458 5.89067 12.1247C5.86129 12.6143 5.30121 24.2115 14.2939 33.2081C22.139 41.0512 31.9659 41.625 34.6723 41.625C35.0679 41.625 35.3107 41.6133 35.3753 41.6094C35.8542 41.5826 36.3062 41.3796 36.6443 41.0395L40.2868 36.7879C40.6198 36.4022 40.7887 35.9016 40.7576 35.393C40.7265 34.8844 40.4978 34.4081 40.1204 34.0659Z" fill="black"/>
</svg>
